# xmcd CD database file generated by Grip 3.2.0
# 
# Track frame offsets:
#       150
#       16636
#       35543
# 
# Disc length: 684 seconds
# 
# Revision: 1
# Processed by: cddbd v1.5.2PL0 Copyright (c) Steve Scherf et al.
# Submitted via: Grip 3.2.0
# 
DISCID=1502aa03
DTITLE=The Turning - Everything Matters
DYEAR=2004
DGENRE=Rock
TTITLE0=Out of My Hands
TTITLE1=Change
TTITLE2=Numb
EXTD=YEAR: 2004
EXTT0=
EXTT1=
EXTT2=
PLAYORDER=
